<svg width="100" height="100" viewBox="0 0 100 100" fill="none" xmlns="http://www.w3.org/2000/svg">
<rect width="100" height="100" rx="50" fill="white"/>
<rect x="0.5" y="0.5" width="99" height="99" rx="49.5" stroke="#E5E5E5" stroke-opacity="0.5"/>
<path d="M63.75 30.75C65.2087 30.75 66.6076 31.3295 67.6391 32.3609C68.6705 33.3924 69.25 34.7913 69.25 36.25V53.4375C69.25 53.9845 69.0327 54.5091 68.6459 54.8959C68.2591 55.2827 67.7345 55.5 67.1875 55.5C66.6405 55.5 66.1159 55.2827 65.7291 54.8959C65.3423 54.5091 65.125 53.9845 65.125 53.4375V36.25C65.125 35.8853 64.9801 35.5356 64.7223 35.2777C64.4644 35.0199 64.1147 34.875 63.75 34.875H36.25C35.8853 34.875 35.5356 35.0199 35.2777 35.2777C35.0199 35.5356 34.875 35.8853 34.875 36.25V63.75C34.875 64.1147 35.0199 64.4644 35.2777 64.7223C35.5356 64.9801 35.8853 65.125 36.25 65.125H50.6875C51.2345 65.125 51.7591 65.3423 52.1459 65.7291C52.5327 66.1159 52.75 66.6405 52.75 67.1875C52.75 67.7345 52.5327 68.2591 52.1459 68.6459C51.7591 69.0327 51.2345 69.25 50.6875 69.25H36.25C34.7913 69.25 33.3924 68.6705 32.3609 67.6391C31.3295 66.6076 30.75 65.2087 30.75 63.75V36.25C30.75 34.7913 31.3295 33.3924 32.3609 32.3609C33.3924 31.3295 34.7913 30.75 36.25 30.75H63.75ZM67.105 58.855C67.2938 58.6524 67.5215 58.4898 67.7745 58.3771C68.0275 58.2644 68.3006 58.2038 68.5776 58.1989C68.8545 58.194 69.1296 58.2449 69.3864 58.3487C69.6432 58.4524 69.8765 58.6068 70.0724 58.8026C70.2682 58.9985 70.4226 59.2318 70.5263 59.4886C70.6301 59.7454 70.681 60.0205 70.6761 60.2974C70.6712 60.5744 70.6106 60.8475 70.4979 61.1005C70.3852 61.3535 70.2226 61.5812 70.02 61.77L63.145 68.645C62.808 68.982 62.3647 69.192 61.8904 69.2391C61.4162 69.2862 60.9402 69.1676 60.5435 68.9035L60.23 68.645L57.48 65.895L57.337 65.741C57.0094 65.3454 56.8413 64.8419 56.8653 64.3289C56.8894 63.8159 57.104 63.3303 57.4672 62.9672C57.8303 62.604 58.3159 62.3894 58.8289 62.3653C59.3419 62.3413 59.8454 62.5094 60.241 62.837L60.395 62.98L61.6875 64.2725L67.105 58.855ZM50.8993 56.886C51.4067 56.9386 51.8767 57.1775 52.2183 57.5564C52.5599 57.9352 52.749 58.4273 52.749 58.9375C52.749 59.4477 52.5599 59.9398 52.2183 60.3186C51.8767 60.6975 51.4067 60.9364 50.8993 60.989L50.6875 61H41.0625C40.5155 61 39.9909 60.7827 39.6041 60.3959C39.2173 60.0091 39 59.4845 39 58.9375C39 58.3905 39.2173 57.8659 39.6041 57.4791C39.9909 57.0923 40.5155 56.875 41.0625 56.875H50.6875L50.8993 56.886ZM58.9375 47.9375C59.4845 47.9375 60.0091 48.1548 60.3959 48.5416C60.7827 48.9284 61 49.453 61 50C61 50.547 60.7827 51.0716 60.3959 51.4584C60.0091 51.8452 59.4845 52.0625 58.9375 52.0625H41.0625C40.5155 52.0625 39.9909 51.8452 39.6041 51.4584C39.2173 51.0716 39 50.547 39 50C39 49.453 39.2173 48.9284 39.6041 48.5416C39.9909 48.1548 40.5155 47.9375 41.0625 47.9375H58.9375ZM58.9375 39C59.4845 39 60.0091 39.2173 60.3959 39.6041C60.7827 39.9909 61 40.5155 61 41.0625C61 41.6095 60.7827 42.1341 60.3959 42.5209C60.0091 42.9077 59.4845 43.125 58.9375 43.125H41.0625C40.5155 43.125 39.9909 42.9077 39.6041 42.5209C39.2173 42.1341 39 41.6095 39 41.0625C39 40.5155 39.2173 39.9909 39.6041 39.6041C39.9909 39.2173 40.5155 39 41.0625 39H58.9375Z" fill="#208AF4"/>
</svg>
