<svg width="48" height="48" viewBox="0 0 48 48" fill="none" xmlns="http://www.w3.org/2000/svg">
<rect width="48" height="48" rx="24" fill="white"/>
<rect x="0.5" y="0.5" width="47" height="47" rx="23.5" stroke="#E5E5E5" stroke-opacity="0.5"/>
<path d="M34.5 28.6687V19.3303C34.4996 19.0246 34.4192 18.7244 34.2667 18.4595C34.1143 18.1946 33.8951 17.9742 33.631 17.8204L25.3185 12.9827C24.918 12.7495 24.4629 12.6267 23.9995 12.6267C23.536 12.6267 23.0809 12.7495 22.6804 12.9827L14.369 17.8204C14.1049 17.9742 13.8857 18.1946 13.7333 18.4595C13.5808 18.7244 13.5004 19.0246 13.5 19.3303V28.6687C13.5002 28.9746 13.5805 29.275 13.733 29.5401C13.8854 29.8052 14.1047 30.0258 14.369 30.1797L22.6815 35.0174C23.0821 35.2502 23.5372 35.3729 24.0005 35.3729C24.4639 35.3729 24.919 35.2502 25.3196 35.0174L33.6321 30.1797C33.8962 30.0256 34.1152 29.805 34.2675 29.5399C34.4198 29.2748 34.4999 28.9745 34.5 28.6687Z" stroke="#208AF4" stroke-width="1.5" stroke-linecap="round" stroke-linejoin="round"/>
<path d="M13.7734 18.4214L24 24.437M24 24.437L34.2266 18.4214M24 24.437V35.3745" stroke="#208AF4" stroke-width="1.5" stroke-linecap="round" stroke-linejoin="round"/>
</svg>
