<svg width="100" height="100" viewBox="0 0 100 100" fill="none" xmlns="http://www.w3.org/2000/svg">
<rect width="100" height="100" rx="50" fill="white"/>
<rect x="0.5" y="0.5" width="99" height="99" rx="49.5" stroke="#E5E5E5" stroke-opacity="0.5"/>
<path d="M35.3333 53.6667H39.7241C40.2631 53.6667 40.7948 53.7877 41.2769 54.0224L45.0206 55.8337C45.5028 56.0665 46.0344 56.1875 46.5753 56.1875H48.4856C50.3336 56.1875 51.4999 56.7107 51.4999 58.5001C51.4999 58.5734 51.4999 58.5001 50.9999 59.0001L47.0538 60.8717C46.2179 61.1026 45.3265 61.0218 44.5458 60.6444L40.5436 58.7084" stroke="#208AF4" stroke-width="2.5" stroke-linecap="round" stroke-linejoin="round"/>
<path d="M51.8333 58.25L60.2538 55.6631C60.9868 55.4382 61.7722 55.4506 62.4978 55.6985C63.2235 55.9464 63.8522 56.4172 64.2944 57.0436C64.9709 57.9786 64.6959 59.3206 63.7096 59.889L49.9321 67.8401C49.5013 68.0894 49.0242 68.2483 48.53 68.3073C48.0358 68.3662 47.5348 68.3239 47.0574 68.183L35.3333 64.7033M51.8333 37.1666H55.4999M55.4999 50H51.8333C48.3756 50 46.6486 50 45.5743 48.9256C44.4999 47.8513 44.4999 46.1243 44.4999 42.6666V39C44.4999 35.5423 44.4999 33.8153 45.5743 32.741C46.6486 31.6666 48.3756 31.6666 51.8333 31.6666H55.4999C58.9576 31.6666 60.6846 31.6666 61.7589 32.741C62.8333 33.8153 62.8333 35.5423 62.8333 39V42.6666C62.8333 46.1243 62.8333 47.8513 61.7589 48.9256C60.6846 50 58.9576 50 55.4999 50Z" stroke="#208AF4" stroke-width="3" stroke-linecap="round" stroke-linejoin="round"/>
</svg>
