<svg width="112" height="60" viewBox="0 0 112 60" fill="none" xmlns="http://www.w3.org/2000/svg">
<path d="M47.5782 17.968C46.1841 18.8525 30.243 13.6263 29.5427 13.4018C28.8424 13.1772 29.0981 12.8018 29.0981 12.8018L37.7761 14.7936C37.7761 14.7936 40.7404 16.3233 44.1669 12.6633C48.4692 8.06769 55.0091 5.93739 55.7172 6.51836C56.4259 7.09907 48.9723 17.0832 47.5782 17.968ZM59.207 2.97512C58.1697 -1.04252 51.0016 0.172627 51.0016 0.172627C38.0449 1.4163 22.0738 16.7876 20.7623 17.4844C19.4507 18.1813 16.6779 21.0943 15.8861 21.284C15.0946 21.4742 9.15198 16.7127 10.3456 15.8499C11.5389 14.987 17.2793 15.1729 18.8308 15.5846C20.3821 15.996 21.6803 15.8062 21.6803 15.8062C25.9547 14.5711 24.6247 12.3381 24.6247 12.3381C9.57192 8.47935 3.5384 13.2414 3.5384 13.2414C-7.80699 21.6854 11.4852 29.7069 14.6093 34.209C17.7331 38.7114 9.12134 48.0304 4.89686 48.1694C0.672326 48.3087 -0.926123 51.8299 2.7044 55.0979C6.33493 58.3664 12.3296 59.5983 22.4744 41.8403C32.6193 24.0818 37.4476 20.7143 36.8085 19.6248C36.1696 18.5353 33.8123 17.8988 32.1729 17.4518C30.5332 17.0047 31.093 17.0692 31.093 17.0692C34.9965 16.6329 37.2789 19.4897 42.8934 21.1364C48.5081 22.7828 48.8037 22.2764 48.8037 22.2764C53.9962 17.9276 60.2442 6.99273 59.207 2.97512Z" fill="#208AF4"/>
<path d="M91.3802 38.8173C91.4014 38.8173 91.4221 38.8171 91.4433 38.8171C91.4433 39.0651 91.3898 39.3285 91.455 39.5578C91.5695 39.9606 91.6686 40.6025 91.9278 40.6904C93.3111 41.1594 95.2812 41.0118 95.7826 39.1239C96.16 37.7038 96.0498 36.2706 95.4238 34.9375C95.2765 34.6236 94.8 34.3753 94.4263 34.2728C93.212 33.9398 92.4747 34.9417 91.5599 35.4288C91.4311 35.4975 91.3919 35.817 91.3877 36.022C91.3702 36.9535 91.3802 37.8855 91.3802 38.8173ZM87.9859 47.6373C87.9859 45.3015 88.0087 42.9657 87.9727 40.6304C87.961 39.892 87.7432 39.1586 87.7055 38.4184C87.6043 36.4426 87.5142 34.465 87.4994 32.4873C87.4951 31.931 87.6366 31.282 87.9467 30.8412C88.2425 30.4209 88.8266 30.0137 89.3174 29.9691C89.9205 29.9144 90.6795 30.0428 90.9658 30.8011C91.1693 31.3396 91.4725 31.3595 91.9967 31.2416C93.0265 31.0105 94.1221 30.6484 95.1228 30.7969C97.2688 31.1159 98.552 32.5072 99.1377 34.6381C99.646 36.488 99.805 38.2803 99.2655 40.151C98.6872 42.1542 96.9906 44.0073 94.7894 44.2349C93.9212 44.3246 93.0376 44.3421 92.1652 44.3029C91.5589 44.2755 91.4104 44.4781 91.4131 45.0559C91.4205 46.5116 91.4269 47.973 91.3066 49.4216C91.1963 50.7458 89.7621 51.2515 88.6803 50.523C87.917 50.0086 87.749 49.3586 87.7972 48.5474C87.8158 48.2448 87.8327 47.9418 87.8502 47.6391C87.8953 47.6386 87.9409 47.6379 87.9859 47.6373Z" fill="#208AF4"/>
<path d="M39.419 41.0397C39.4241 38.834 39.4241 38.8257 37.2895 38.7924C36.7392 38.7838 36.1862 38.8278 35.6373 38.8786C34.2198 39.0101 34.1948 39.0811 34.0977 40.514C34.0351 41.441 33.9667 42.391 33.7116 43.2761C33.3933 44.3822 31.8848 44.6528 30.9463 43.9717C30.0306 43.307 30.3193 42.4577 30.341 41.5982C30.4108 38.8495 30.4443 36.1001 30.4838 33.3508C30.4892 32.9929 30.4348 32.6344 30.431 32.2759C30.4203 31.2853 30.9742 30.4135 31.7455 30.186C32.404 29.9917 33.6585 30.5736 34.0683 31.3114C34.1933 31.5363 34.2269 31.8366 34.2263 32.1021C34.2248 33.093 34.1966 34.0839 34.1684 35.0748C34.1559 35.5159 34.3235 35.6296 34.7737 35.5794C36.0315 35.4386 37.2952 35.3427 38.5589 35.2631C39.1437 35.226 39.4368 35.1021 39.4107 34.3839C39.3688 33.2355 39.4989 32.0807 39.5601 30.9288C39.5883 30.3998 39.8794 30.1304 40.403 30.1013C40.4579 30.0983 40.5129 30.0876 40.5669 30.0773C42.5295 29.6932 43.3177 30.5379 43.2405 32.5682C43.1321 35.4259 43.2004 38.291 43.2224 41.1529C43.2286 41.9831 43.3073 42.7774 42.7573 43.5229C42.1942 44.2866 41.4894 44.2429 40.7591 44.0208C40.0469 43.8039 39.4523 43.3904 39.4223 42.5296C39.4048 42.0336 39.419 41.5364 39.419 41.0397Z" fill="#208AF4"/>
<path d="M82.6528 36.1674C82.7196 35.3131 82.5404 34.5278 81.7909 34.0564C80.591 33.3019 78.1396 33.6382 77.3265 34.7883C76.6926 35.6847 76.2643 36.754 75.8938 37.7992C75.5817 38.6802 75.7613 39.5565 76.5898 40.1666C77.6196 40.9258 78.7268 41.3428 79.974 40.7413C81.8826 39.8206 82.5568 38.1569 82.6528 36.1674ZM79.8569 30.1038C81.8042 30.0788 83.5586 30.6204 85.0368 31.8919C85.4174 32.2193 85.7232 32.7013 85.9114 33.1727C86.9958 35.8897 86.5055 38.5112 85.0951 40.9282C84.2953 42.299 83.1218 43.5703 81.5826 44.0482C79.9475 44.5564 78.1491 44.8068 76.4711 44.101C75.0288 43.4942 73.6428 42.7487 72.8038 41.2994C71.8662 39.6798 71.6616 38.03 72.4137 36.2808C72.6177 35.8071 72.6554 35.2567 72.8859 34.8001C73.9932 32.6045 75.588 30.9305 78.0537 30.3005C78.6341 30.1522 79.2548 30.165 79.8569 30.1038Z" fill="#208AF4"/>
<path d="M68.0563 39.4676C67.8888 40.7665 67.7913 42.0797 67.5295 43.3593C67.3445 44.2644 66.5182 44.6092 65.4284 44.4316C64.759 44.3223 64.1124 43.5874 64.1055 42.8398C64.0869 40.6878 64.1007 38.5355 64.0922 36.3833C64.0901 35.8593 64.0445 35.3356 64.0265 34.8117C64.0016 34.095 63.6242 33.9426 62.9415 33.9256C62.2006 33.9072 61.3997 33.786 60.7451 33.4649C59.9342 33.0669 59.8202 32.3255 60.2898 31.3783C60.6057 30.7406 61.1681 30.5065 61.9234 30.522C64.4601 30.5731 66.9994 30.5974 69.5356 30.5374C70.7367 30.5089 71.5996 31.064 71.6859 32.1785C71.7538 33.058 70.8639 34.0186 69.8722 34.0608C69.4111 34.0804 68.9367 33.9978 68.4825 33.898C67.7394 33.7349 67.5295 34.0697 67.5788 34.7395C67.6943 36.3055 67.7982 37.872 67.9063 39.4382C67.9561 39.448 68.0065 39.4578 68.0563 39.4676Z" fill="#208AF4"/>
<path d="M106.932 30.6171C108.175 30.6171 109.417 30.5925 110.658 30.6249C111.672 30.6513 111.858 30.9032 111.989 32.1932C112.075 33.0395 111.657 33.829 110.931 33.8928C109.703 34.0012 108.449 34.1111 107.232 33.9778C104.968 33.7297 104.798 33.8444 104.89 36.1188C104.974 38.2389 105.004 40.3621 105.025 42.4841C105.037 43.7518 104.604 44.1739 103.363 44.2199C102.307 44.2588 101.496 43.5561 101.459 42.4853C101.368 39.9501 101.325 37.4132 101.238 34.8777C101.212 34.0939 100.99 33.3011 101.065 32.533C101.177 31.3909 102.145 30.6302 103.288 30.6174C104.503 30.6038 105.717 30.6142 106.932 30.6142V30.6171Z" fill="#208AF4"/>
<path d="M54.8904 37.2835C54.4696 37.8719 54.1102 38.5197 53.6141 39.036C52.7025 39.9847 51.7187 40.8663 50.7482 41.7568C50.0005 42.4429 49.2043 43.0765 48.4698 43.776C47.6299 44.5753 46.6795 44.4312 45.7647 44.0811C44.983 43.7816 45.0397 42.9904 45.0275 42.2989C44.9693 39.044 44.9069 35.7892 44.8642 32.534C44.8434 30.9701 45.0706 30.734 46.55 30.6288C47.5182 30.5599 48.4238 31.3637 48.5054 32.4621C48.5749 33.3945 48.5505 34.3349 48.549 35.2718C48.5475 36.2632 48.5131 37.2547 48.5214 38.2462C48.5226 38.4039 48.6727 38.5604 48.7537 38.7173C48.8876 38.6425 49.0557 38.597 49.1507 38.488C51.2671 36.0654 53.3343 33.5983 55.5222 31.2428C55.9181 30.8166 56.9321 30.5341 57.4277 30.7417C58.0208 30.9897 58.7337 31.8241 58.7533 32.4253C58.8619 35.7579 58.7814 39.0966 58.7538 42.4334C58.7427 43.7626 58.0149 44.4663 56.7678 44.3938C55.7215 44.3332 55.0245 43.4092 55.0924 42.238C55.1729 40.8636 55.2249 39.4872 55.2651 38.111C55.2726 37.8532 55.166 37.5924 55.112 37.3328C55.0383 37.3165 54.9641 37.2999 54.8904 37.2835Z" fill="#208AF4"/>
<path d="M58.686 54.6101C58.686 55.8797 59.4163 56.838 60.4462 56.838C61.4527 56.838 62.2075 55.8918 62.2075 54.5862C62.2075 53.6035 61.7161 52.3578 60.4706 52.3578C59.225 52.3578 58.686 53.5081 58.686 54.6101ZM63.285 54.5502C63.285 56.6944 61.8004 57.6289 60.3985 57.6289C58.8296 57.6289 57.6201 56.4786 57.6201 54.6461C57.6201 52.7055 58.8895 51.5674 60.4944 51.5674C62.1592 51.5674 63.285 52.7776 63.285 54.5502Z" fill="#208AF4"/>
<path d="M77.0461 55.137C77.0461 55.2928 77.0705 55.4365 77.0943 55.5685C77.2862 56.2989 77.9207 56.802 78.6754 56.802C79.789 56.802 80.4362 55.8918 80.4362 54.5619C80.4362 53.3999 79.8251 52.406 78.7115 52.406C77.9928 52.406 77.3217 52.9207 77.1182 53.7116C77.0822 53.8436 77.0461 53.9989 77.0461 54.1431V55.137ZM76.0041 53.5918C76.0041 52.8492 75.9802 52.2502 75.9564 51.6994H76.9025L76.9502 52.6933H76.9746C77.4055 51.9862 78.0887 51.5674 79.0348 51.5674C80.4362 51.5674 81.4899 52.7532 81.4899 54.5142C81.4899 56.5984 80.2205 57.6284 78.8551 57.6284C78.0887 57.6284 77.4177 57.2934 77.0705 56.7182H77.0461V59.8685H76.0041V53.5918Z" fill="#208AF4"/>
<path d="M46.7314 53.9867C46.7314 53.807 46.7195 53.6517 46.6715 53.5075C46.4799 52.8969 45.9649 52.3933 45.1983 52.3933C44.1921 52.3933 43.4734 53.2441 43.4734 54.5857C43.4734 55.7238 44.0484 56.67 45.1862 56.67C45.833 56.67 46.4199 56.2629 46.6477 55.5918C46.7074 55.4121 46.7314 55.2086 46.7314 55.0289V53.9867ZM47.8214 51.6989C47.7974 52.1182 47.7736 52.5852 47.7736 53.2923V56.6578C47.7736 57.9878 47.5099 58.802 46.9471 59.3056C46.3839 59.8325 45.5696 60 44.8389 60C44.1443 60 43.3777 59.8325 42.9105 59.5213L43.174 58.7183C43.5574 58.9579 44.1562 59.1736 44.8749 59.1736C45.953 59.1736 46.7433 58.6106 46.7433 57.1492V56.5025H46.7195C46.3961 57.0416 45.7733 57.4726 44.8749 57.4726C43.4377 57.4726 42.4074 56.2507 42.4074 54.6456C42.4074 52.6811 43.689 51.5674 45.0186 51.5674C46.0249 51.5674 46.5758 52.0943 46.8273 52.5735H46.8511L46.8992 51.6989H47.8214Z" fill="#208AF4"/>
<path d="M51.8464 53.5075C51.8464 52.8248 51.8348 52.238 51.7987 51.6989H52.721L52.7565 52.837H52.8047C53.0682 52.0583 53.7031 51.5674 54.4097 51.5674C54.5294 51.5674 54.6132 51.5791 54.7091 51.6029V52.5974C54.6015 52.573 54.4934 52.5613 54.3498 52.5613C53.6072 52.5613 53.0803 53.1243 52.9362 53.9152C52.9123 54.0588 52.8885 54.2263 52.8885 54.406V57.4969H51.8464V53.5075Z" fill="#208AF4"/>
<path d="M71.8603 55.9163C71.8603 56.5153 71.8725 57.0422 71.9086 57.4975H70.9741L70.9142 56.5513H70.8904C70.6148 57.0183 70.0042 57.6295 68.9743 57.6295C68.0638 57.6295 66.974 57.1265 66.974 55.0899V51.7H68.0277V54.9102C68.0277 56.0122 68.3632 56.7549 69.3215 56.7549C70.028 56.7549 70.5188 56.2635 70.7107 55.7965C70.7706 55.6406 70.8067 55.4493 70.8067 55.2574V51.7H71.8603V55.9163Z" fill="#208AF4"/>
</svg>
