<svg width="48" height="48" viewBox="0 0 48 48" fill="none" xmlns="http://www.w3.org/2000/svg">
<rect width="48" height="48" rx="24" fill="white"/>
<rect x="0.5" y="0.5" width="47" height="47" rx="23.5" stroke="#E5E5E5" stroke-opacity="0.5"/>
<path d="M31.875 21.375C31.875 19.2864 31.0453 17.2834 29.5685 15.8065C28.0916 14.3297 26.0886 13.5 24 13.5C21.9114 13.5 19.9084 14.3297 18.4315 15.8065C16.9547 17.2834 16.125 19.2864 16.125 21.375C16.125 24.6055 18.7098 28.816 24 33.8595C29.2902 28.816 31.875 24.6055 31.875 21.375ZM24 36.25C17.5827 30.4172 14.375 25.4578 14.375 21.375C14.375 18.8223 15.3891 16.3741 17.1941 14.5691C18.9991 12.7641 21.4473 11.75 24 11.75C26.5527 11.75 29.0009 12.7641 30.8059 14.5691C32.6109 16.3741 33.625 18.8223 33.625 21.375C33.625 25.4578 30.4172 30.4172 24 36.25Z" fill="#208AF4"/>
<path d="M24 24C24.6962 24 25.3639 23.7234 25.8562 23.2312C26.3484 22.7389 26.625 22.0712 26.625 21.375C26.625 20.6788 26.3484 20.0111 25.8562 19.5188C25.3639 19.0266 24.6962 18.75 24 18.75C23.3038 18.75 22.6361 19.0266 22.1438 19.5188C21.6516 20.0111 21.375 20.6788 21.375 21.375C21.375 22.0712 21.6516 22.7389 22.1438 23.2312C22.6361 23.7234 23.3038 24 24 24ZM24 25.75C22.8397 25.75 21.7269 25.2891 20.9064 24.4686C20.0859 23.6481 19.625 22.5353 19.625 21.375C19.625 20.2147 20.0859 19.1019 20.9064 18.2814C21.7269 17.4609 22.8397 17 24 17C25.1603 17 26.2731 17.4609 27.0936 18.2814C27.9141 19.1019 28.375 20.2147 28.375 21.375C28.375 22.5353 27.9141 23.6481 27.0936 24.4686C26.2731 25.2891 25.1603 25.75 24 25.75Z" fill="#208AF4"/>
</svg>
