<svg width="30" height="30" viewBox="0 0 30 30" fill="none" xmlns="http://www.w3.org/2000/svg">
<path d="M19.4401 18.1472L18.8081 18.7764C18.8081 18.7764 17.304 20.2708 13.1998 16.1902C9.09563 12.1097 10.5998 10.6152 10.5998 10.6152L10.997 10.218C11.979 9.24303 12.072 7.67636 11.2151 6.53192L9.46508 4.19442C8.40397 2.77775 6.35536 2.59025 5.14008 3.79858L2.95952 5.96525C2.35813 6.56525 1.95536 7.34025 2.00397 8.20136C2.12897 10.4055 3.12619 15.1458 8.6873 20.6764C14.5859 26.5402 20.1206 26.7736 22.3831 26.5625C23.0998 26.4958 23.722 26.1319 24.2234 25.6319L26.1956 23.6708C27.529 22.3472 27.154 20.0764 25.4484 19.15L22.7956 17.7069C21.6762 17.1 20.3151 17.2777 19.4401 18.1472Z" fill="#208AF4"/>
</svg>
