<svg width="69" height="69" viewBox="0 0 69 69" fill="none" xmlns="http://www.w3.org/2000/svg">
<rect width="69" height="69" rx="34.5" fill="white"/>
<rect x="0.5" y="0.5" width="68" height="68" rx="34" stroke="#E5E5E5" stroke-opacity="0.5"/>
<path d="M30.9969 43.1603L31.3125 42.8131V41.1008L26.1411 30.1836H23.7339L18.5625 41.1008V42.8965L18.8437 43.2017C19.6159 44.0378 20.5527 44.7053 21.5951 45.1622C22.6376 45.6191 23.7633 45.8556 24.9015 45.8567H24.9294C26.0723 45.8517 27.2017 45.6094 28.2461 45.1453C29.2905 44.6811 30.2272 44.0052 30.9969 43.1603ZM29.1875 41.9779C28.0538 43.1039 26.52 43.7346 24.9222 43.7319H24.9002C23.3305 43.7398 21.8194 43.1358 20.6875 42.0482V41.5789L24.9375 32.6066L29.1875 41.5789V41.9779ZM45.2661 30.1836H42.8589L37.6875 41.1008V42.8965L37.9687 43.2017C38.7409 44.0378 39.6777 44.7053 40.7201 45.1622C41.7626 45.6191 42.8883 45.8556 44.0265 45.8567H44.0544C45.1973 45.8517 46.3267 45.6094 47.3711 45.1452C48.4155 44.681 49.3522 44.0051 50.1219 43.1602L50.4375 42.8131V41.1008L45.2661 30.1836ZM48.3125 41.9779C47.1788 43.1039 45.645 43.7346 44.0472 43.7319H44.0252C42.4555 43.7398 40.9444 43.1358 39.8125 42.0482V41.5789L44.0625 32.6066L48.3125 41.5789V41.9779Z" fill="#208AF4"/>
<path d="M35.5625 30.5594C36.1536 30.3817 36.6914 30.0603 37.1278 29.6239C37.5642 29.1875 37.8856 28.6497 38.0633 28.0586H45.125V25.9336H38.0633C37.8346 25.1662 37.3642 24.4931 36.7222 24.0145C36.0802 23.5359 35.3008 23.2773 34.5 23.2773C33.6992 23.2773 32.9198 23.5359 32.2778 24.0145C31.6358 24.4931 31.1654 25.1662 30.9367 25.9336H23.875V28.0586H30.9367C31.1144 28.6497 31.4358 29.1875 31.8722 29.6239C32.3086 30.0603 32.8464 30.3817 33.4375 30.5594V48.2461H26.5312V50.3711H42.4688V48.2461H35.5625V30.5594ZM32.9062 26.9961C32.9062 26.6809 32.9997 26.3727 33.1748 26.1107C33.35 25.8486 33.5989 25.6443 33.8901 25.5237C34.1813 25.403 34.5018 25.3715 34.8109 25.433C35.1201 25.4945 35.4041 25.6463 35.627 25.8691C35.8498 26.092 36.0016 26.376 36.0631 26.6852C36.1246 26.9943 36.0931 27.3148 35.9724 27.606C35.8518 27.8972 35.6475 28.1461 35.3854 28.3212C35.1233 28.4964 34.8152 28.5898 34.5 28.5898C34.0773 28.5898 33.6719 28.4219 33.373 28.123C33.0742 27.8242 32.9062 27.4188 32.9062 26.9961Z" fill="#208AF4"/>
</svg>
