<svg width="48" height="48" viewBox="0 0 48 48" fill="none" xmlns="http://www.w3.org/2000/svg">
<rect width="48" height="48" rx="24" fill="white"/>
<rect x="0.5" y="0.5" width="47" height="47" rx="23.5" stroke="#E5E5E5" stroke-opacity="0.5"/>
<path d="M26.5 24.3125C25.5729 24.3125 24.6666 24.0376 23.8958 23.5225C23.1249 23.0074 22.5241 22.2754 22.1693 21.4188C21.8145 20.5623 21.7217 19.6198 21.9026 18.7105C22.0834 17.8012 22.5299 16.966 23.1854 16.3104C23.841 15.6549 24.6762 15.2084 25.5855 15.0276C26.4948 14.8467 27.4373 14.9395 28.2938 15.2943C29.1504 15.6491 29.8824 16.2499 30.3975 17.0208C30.9126 17.7916 31.1875 18.6979 31.1875 19.625C31.1875 20.8682 30.6936 22.0605 29.8146 22.9396C28.9355 23.8186 27.7432 24.3125 26.5 24.3125ZM26.5 16.8125C25.9437 16.8125 25.4 16.9775 24.9375 17.2865C24.4749 17.5955 24.1145 18.0348 23.9016 18.5487C23.6887 19.0626 23.633 19.6281 23.7415 20.1737C23.8501 20.7193 24.1179 21.2204 24.5113 21.6137C24.9046 22.0071 25.4057 22.2749 25.9513 22.3835C26.4969 22.492 27.0624 22.4363 27.5763 22.2234C28.0902 22.0105 28.5295 21.6501 28.8385 21.1875C29.1476 20.725 29.3125 20.1813 29.3125 19.625C29.3125 18.8791 29.0162 18.1637 28.4887 17.6363C27.9613 17.1088 27.2459 16.8125 26.5 16.8125ZM35.25 33.0625C35.0024 33.0593 34.7658 32.9595 34.5907 32.7843C34.4155 32.6092 34.3157 32.3726 34.3125 32.125C34.3125 29.6875 32.9875 28.0625 26.5 28.0625C20.0125 28.0625 18.6875 29.6875 18.6875 32.125C18.6875 32.3736 18.5887 32.6121 18.4129 32.7879C18.2371 32.9637 17.9986 33.0625 17.75 33.0625C17.5014 33.0625 17.2629 32.9637 17.0871 32.7879C16.9113 32.6121 16.8125 32.3736 16.8125 32.125C16.8125 26.1875 23.6 26.1875 26.5 26.1875C29.4 26.1875 36.1875 26.1875 36.1875 32.125C36.1843 32.3726 36.0845 32.6092 35.9093 32.7843C35.7342 32.9595 35.4976 33.0593 35.25 33.0625ZM19.4 25.325H19C18.0054 25.2289 17.0898 24.7416 16.4545 23.9703C15.8192 23.1991 15.5164 22.2071 15.6125 21.2125C15.7086 20.2179 16.1959 19.3023 16.9672 18.667C17.7384 18.0317 18.7304 17.7289 19.725 17.825C19.8525 17.8305 19.9776 17.8619 20.0925 17.9175C20.2075 17.973 20.3098 18.0514 20.3934 18.1479C20.477 18.2444 20.54 18.3569 20.5785 18.4786C20.617 18.6003 20.6303 18.7285 20.6175 18.8555C20.6047 18.9825 20.5662 19.1056 20.5041 19.2172C20.4421 19.3287 20.358 19.4264 20.2569 19.5043C20.1557 19.5822 20.0398 19.6387 19.9161 19.6701C19.7924 19.7016 19.6636 19.7075 19.5375 19.6875C19.2935 19.6632 19.0471 19.6883 18.813 19.7613C18.5789 19.8343 18.3619 19.9538 18.175 20.1125C17.9852 20.2656 17.8277 20.455 17.7118 20.6696C17.5959 20.8842 17.5239 21.1198 17.5 21.3625C17.4742 21.6083 17.4975 21.8567 17.5686 22.0934C17.6397 22.3301 17.7573 22.5502 17.9143 22.741C18.0714 22.9318 18.2648 23.0894 18.4834 23.2047C18.702 23.32 18.9413 23.3906 19.1875 23.4125C19.5944 23.4473 20.0018 23.3509 20.35 23.1375C20.5622 23.0066 20.8177 22.9652 21.0603 23.0227C21.3029 23.0801 21.5128 23.2316 21.6437 23.4438C21.7747 23.6559 21.816 23.9114 21.7586 24.1541C21.7011 24.3967 21.5497 24.6066 21.3375 24.7375C20.7577 25.1073 20.0875 25.3105 19.4 25.325ZM12.75 32.125C12.5024 32.1218 12.2658 32.022 12.0907 31.8468C11.9155 31.6717 11.8157 31.4351 11.8125 31.1875C11.8125 27.8125 12.7125 25.5625 17.125 25.5625C17.3736 25.5625 17.6121 25.6613 17.7879 25.8371C17.9637 26.0129 18.0625 26.2514 18.0625 26.5C18.0625 26.7486 17.9637 26.9871 17.7879 27.1629C17.6121 27.3387 17.3736 27.4375 17.125 27.4375C14.1875 27.4375 13.6875 28.375 13.6875 31.1875C13.6843 31.4351 13.5845 31.6717 13.4093 31.8468C13.2342 32.022 12.9976 32.1218 12.75 32.125Z" fill="#208AF4"/>
</svg>
