<svg width="100" height="100" viewBox="0 0 100 100" fill="none" xmlns="http://www.w3.org/2000/svg">
<rect width="100" height="100" rx="50" fill="white"/>
<rect x="0.5" y="0.5" width="99" height="99" rx="49.5" stroke="#E5E5E5" stroke-opacity="0.5"/>
<path d="M50.8745 50.8718C53.1956 48.551 56.3436 47.2473 59.626 47.2476C62.9083 47.2478 66.0561 48.552 68.3769 50.8731C70.6977 53.1943 72.0013 56.3423 72.001 59.6246C72.0008 62.9069 70.6966 66.0547 68.3755 68.3755C68.1162 68.626 67.7688 68.7646 67.4083 68.7614C67.0478 68.7583 66.7029 68.6137 66.448 68.3587C66.1931 68.1038 66.0485 67.7589 66.0453 67.3984C66.0422 67.0379 66.1808 66.6906 66.4313 66.4313C67.7772 65.0851 68.6938 63.3701 69.0651 61.5031C69.4364 59.636 69.2458 57.7008 68.5172 55.9421C67.7887 54.1835 66.5551 52.6803 64.9723 51.6227C63.3895 50.5652 61.5286 50.0007 59.625 50.0007C57.7214 50.0007 55.8605 50.5652 54.2777 51.6227C52.6949 52.6803 51.4613 54.1835 50.7328 55.9421C50.0042 57.7008 49.8136 59.636 50.1849 61.5031C50.5562 63.3701 51.4728 65.0851 52.8187 66.4313C53.0692 66.6906 53.2078 67.0379 53.2047 67.3984C53.2015 67.7589 53.0569 68.1038 52.802 68.3587C52.5471 68.6137 52.2022 68.7583 51.8417 68.7614C51.4812 68.7646 51.1338 68.626 50.8745 68.3755C49.7249 67.2263 48.813 65.8619 48.1909 64.3603C47.5687 62.8586 47.2485 61.2491 47.2485 59.6236C47.2485 57.9982 47.5687 56.3887 48.1909 54.887C48.813 53.3853 49.7249 52.0209 50.8745 50.8718ZM54.7603 54.7603C56.0501 53.4704 57.7995 52.7458 59.6236 52.7458C61.4477 52.7458 63.1972 53.4704 64.487 54.7603C65.7768 56.0501 66.5015 57.7995 66.5015 59.6236C66.5015 61.4477 65.7768 63.1972 64.487 64.487C64.2288 64.7452 63.8786 64.8902 63.5135 64.8902C63.1484 64.8902 62.7982 64.7452 62.54 64.487C62.2818 64.2288 62.1368 63.8786 62.1368 63.5135C62.1368 63.1484 62.2818 62.7982 62.54 62.54C63.1174 61.9633 63.5108 61.2283 63.6704 60.428C63.8299 59.6277 63.7486 58.798 63.4365 58.044C63.1244 57.2899 62.5957 56.6454 61.9173 56.1919C61.2388 55.7384 60.4411 55.4964 59.625 55.4964C58.8089 55.4964 58.0112 55.7384 57.3327 56.1919C56.6543 56.6454 56.1256 57.2899 55.8135 58.044C55.5014 58.798 55.4201 59.6277 55.5796 60.428C55.7392 61.2283 56.1326 61.9633 56.71 62.54C56.9682 62.7986 57.1131 63.1491 57.1128 63.5145C57.1126 63.8799 56.9672 64.2302 56.7086 64.4884C56.4501 64.7466 56.0995 64.8915 55.7342 64.8912C55.3688 64.8909 55.0184 64.7456 54.7603 64.487C54.1212 63.8485 53.6143 63.0904 53.2685 62.2559C52.9226 61.4214 52.7446 60.5269 52.7446 59.6236C52.7446 58.7203 52.9226 57.8258 53.2685 56.9914C53.6143 56.1569 54.1212 55.3987 54.7603 54.7603ZM47.9595 50C47.26 50.8484 46.6551 51.7705 46.1555 52.75H34.875C34.1457 52.75 33.4462 53.0397 32.9305 53.5555C32.4147 54.0712 32.125 54.7707 32.125 55.5C32.125 56.897 32.961 58.228 34.688 59.2812C36.415 60.3345 38.9065 61 41.75 61C42.729 61 43.6668 60.912 44.5468 60.7663C44.6146 61.7013 44.764 62.606 44.995 63.4805C43.9229 63.6618 42.8373 63.752 41.75 63.75C38.5188 63.75 35.5075 63.002 33.2552 61.6325C31.0003 60.2575 29.375 58.1537 29.375 55.5C29.375 54.0413 29.9545 52.6424 30.9859 51.6109C32.0174 50.5795 33.4163 50 34.875 50H47.9595ZM41.75 32.125C43.7557 32.125 45.6793 32.9218 47.0975 34.34C48.5157 35.7582 49.3125 37.6818 49.3125 39.6875C49.3125 41.6932 48.5157 43.6168 47.0975 45.035C45.6793 46.4532 43.7557 47.25 41.75 47.25C39.7443 47.25 37.8207 46.4532 36.4025 45.035C34.9843 43.6168 34.1875 41.6932 34.1875 39.6875C34.1875 37.6818 34.9843 35.7582 36.4025 34.34C37.8207 32.9218 39.7443 32.125 41.75 32.125ZM60.2603 34.8998C61.7854 35.0563 63.1983 35.7727 64.2259 36.9105C65.2534 38.0483 65.8227 39.5266 65.8235 41.0598L65.7905 41.6923C65.653 43.0398 65.081 44.258 64.2175 45.2122C62.7448 44.7436 61.209 44.5034 59.6635 44.5C60.5735 44.4906 61.4427 44.1212 62.0812 43.4727C62.7197 42.8242 63.0754 41.9493 63.0707 41.0393C63.066 40.1293 62.7012 39.2581 62.056 38.6163C61.4108 37.9745 60.5378 37.6142 59.6278 37.6142C58.7177 37.6142 57.8447 37.9745 57.1995 38.6163C56.5543 39.2581 56.1895 40.1293 56.1848 41.0393C56.1801 41.9493 56.5358 42.8242 57.1743 43.4727C57.8128 44.1212 58.682 44.4906 59.592 44.5C58.0467 44.5025 56.5108 44.7417 55.038 45.2095C54.1525 44.234 53.6031 43.0003 53.4705 41.6895L53.4375 41.0625C53.4368 40.249 53.5965 39.4434 53.9074 38.6917C54.2184 37.94 54.6746 37.257 55.2498 36.6818C55.825 36.1066 56.508 35.6504 57.2597 35.3394C58.0114 35.0285 58.817 34.8688 59.6305 34.8695L60.2603 34.8998ZM41.75 34.875C40.4736 34.875 39.2496 35.382 38.347 36.2845C37.4445 37.1871 36.9375 38.4111 36.9375 39.6875C36.9375 40.9639 37.4445 42.1879 38.347 43.0905C39.2496 43.993 40.4736 44.5 41.75 44.5C43.0264 44.5 44.2504 43.993 45.153 43.0905C46.0555 42.1879 46.5625 40.9639 46.5625 39.6875C46.5625 38.4111 46.0555 37.1871 45.153 36.2845C44.2504 35.382 43.0264 34.875 41.75 34.875Z" fill="#208AF4"/>
</svg>
