<svg width="69" height="69" viewBox="0 0 69 69" fill="none" xmlns="http://www.w3.org/2000/svg">
<rect width="69" height="69" rx="34.5" fill="white"/>
<rect x="0.5" y="0.5" width="68" height="68" rx="34" stroke="#E5E5E5" stroke-opacity="0.5"/>
<path d="M49.2741 24.9762C49.8425 24.5648 49.97 23.7738 49.5556 23.2096C49.1413 22.6453 48.3444 22.5187 47.776 22.9301L43.8181 25.7883L43.2922 25.4402C42.2456 24.7441 41.0131 24.375 39.7541 24.375H28.9591C27.5406 24.375 26.17 24.8443 25.0597 25.6986L21.2241 22.9301C20.6556 22.5187 19.8588 22.6453 19.4444 23.2096C19.03 23.7738 19.1575 24.5648 19.726 24.9762L24.401 28.3512C24.911 28.715 25.6069 28.6623 26.0531 28.2246L26.2603 28.0189C26.9775 27.307 27.9497 26.9062 28.9644 26.9062H31.4241L26.5525 31.742C25.7238 32.5646 25.7238 33.8988 26.5525 34.7267L26.595 34.7689C29.0813 37.2422 33.1188 37.2422 35.6103 34.7689L37.05 33.3398L42.2456 38.4972C43.0744 39.3199 43.0744 40.6541 42.2456 41.482L41.725 41.9988L40.0781 40.364C39.5788 39.8683 38.7713 39.8683 38.2772 40.364C37.7831 40.8598 37.7778 41.6613 38.2772 42.1517L39.7647 43.6283C38.835 44.1767 37.7885 44.509 36.7047 44.6039L34.1281 42.041C33.6288 41.5453 32.8213 41.5453 32.3272 42.041C31.8331 42.5367 31.8278 43.3383 32.3272 43.8287L33.1241 44.6197H32.9222C31.0044 44.6197 29.1663 43.8656 27.8116 42.5209L20.9531 35.7129C20.4538 35.2172 19.6463 35.2172 19.1522 35.7129C18.6581 36.2086 18.6528 37.0101 19.1522 37.5006L26.0106 44.3139C27.8435 46.1332 30.3297 47.1562 32.9222 47.1562H35.6741L35.7272 47.209L35.7803 47.1562H36.0831C38.6756 47.1562 41.1619 46.1332 42.9947 44.3139L44.0519 43.2644C44.1156 43.2012 44.1741 43.1431 44.2325 43.0799C44.2697 43.0535 44.3016 43.0219 44.3335 42.9902L49.8531 37.5058C50.3525 37.0101 50.3525 36.2086 49.8531 35.7182C49.3538 35.2277 48.5463 35.2224 48.0522 35.7182L45.1941 38.5553C44.971 37.8803 44.5938 37.2422 44.0519 36.7043L37.9531 30.6504C37.4538 30.1547 36.6463 30.1547 36.1522 30.6504L33.8094 32.976C32.4016 34.3734 30.1703 34.4525 28.6722 33.2185L33.9156 28.0137C34.6275 27.307 35.5944 26.9062 36.6038 26.901H39.7647C40.5191 26.901 41.2575 27.1224 41.8844 27.539L43.1435 28.3828C43.5897 28.6781 44.1688 28.6623 44.5991 28.3512L49.2741 24.9762Z" fill="#208AF4"/>
</svg>
