<svg width="48" height="48" viewBox="0 0 48 48" fill="none" xmlns="http://www.w3.org/2000/svg">
<rect width="48" height="48" rx="24" fill="white"/>
<rect x="0.5" y="0.5" width="47" height="47" rx="23.5" stroke="#E5E5E5" stroke-opacity="0.5"/>
<path d="M23.9999 28.6667C28.5102 28.6667 32.1666 25.0104 32.1666 20.5C32.1666 15.9897 28.5102 12.3334 23.9999 12.3334C19.4896 12.3334 15.8333 15.9897 15.8333 20.5C15.8333 25.0104 19.4896 28.6667 23.9999 28.6667Z" stroke="#208AF4" stroke-width="1.5"/>
<path d="M18.576 27.5L17.8328 30.2102C17.1002 32.8842 16.7338 34.2212 17.2227 34.9527C17.3942 35.2093 17.624 35.4147 17.8912 35.5512C18.6518 35.9385 19.8278 35.326 22.1787 34.101C22.9603 33.6927 23.3523 33.4897 23.7677 33.4453C23.9221 33.4299 24.0776 33.4299 24.232 33.4453C24.6473 33.4897 25.0382 33.6938 25.821 34.101C28.1718 35.326 29.3478 35.9385 30.1085 35.5512C30.3757 35.4147 30.6055 35.2093 30.777 34.9527C31.267 34.2212 30.8995 32.8842 30.1668 30.2102L29.4237 27.5" stroke="#208AF4" stroke-width="1.5" stroke-linecap="round"/>
</svg>
