<svg width="100" height="100" viewBox="0 0 100 100" fill="none" xmlns="http://www.w3.org/2000/svg">
<rect width="100" height="100" rx="50" fill="white"/>
<rect x="0.5" y="0.5" width="99" height="99" rx="49.5" stroke="#E5E5E5" stroke-opacity="0.5"/>
<path d="M56.4167 31.6666V37.1666M39.9167 31.6666V37.1666M48.1667 31.6666V37.1666M62.8333 51.8333V47.25C62.8333 41.2 62.8333 38.175 60.9542 36.2958C59.075 34.4166 56.05 34.4166 50 34.4166H46.3333C40.2833 34.4166 37.2583 34.4166 35.3792 36.2958C33.5 38.175 33.5 41.2 33.5 47.25V55.5C33.5 61.55 33.5 64.575 35.3792 66.4541C37.2583 68.3333 40.2833 68.3333 46.3333 68.3333H51.8333M40.8333 55.5H48.1667M40.8333 48.1666H55.5M66.5 62.8333H61M61 62.8333H55.5M61 62.8333V68.3333M61 62.8333V57.3333" stroke="#208AF4" stroke-width="3" stroke-linecap="round" stroke-linejoin="round"/>
</svg>
