<svg width="58" height="58" viewBox="0 0 58 58" fill="none" xmlns="http://www.w3.org/2000/svg">
<rect width="58" height="58" rx="29" fill="white"/>
<rect x="0.5" y="0.5" width="57" height="57" rx="28.5" stroke="#E5E5E5" stroke-opacity="0.5"/>
<path d="M37.4375 26.1875C37.4375 23.9497 36.5486 21.8036 34.9662 20.2213C33.3839 18.6389 31.2378 17.75 29 17.75C26.7622 17.75 24.6161 18.6389 23.0338 20.2213C21.4514 21.8036 20.5625 23.9497 20.5625 26.1875C20.5625 29.6488 23.3319 34.16 29 39.5637C34.6681 34.16 37.4375 29.6488 37.4375 26.1875ZM29 42.125C22.1244 35.8756 18.6875 30.5619 18.6875 26.1875C18.6875 23.4525 19.774 20.8294 21.708 18.8955C23.6419 16.9615 26.265 15.875 29 15.875C31.735 15.875 34.3581 16.9615 36.292 18.8955C38.226 20.8294 39.3125 23.4525 39.3125 26.1875C39.3125 30.5619 35.8756 35.8756 29 42.125Z" fill="#208AF4"/>
<path d="M29 29C29.7459 29 30.4613 28.7037 30.9887 28.1762C31.5162 27.6488 31.8125 26.9334 31.8125 26.1875C31.8125 25.4416 31.5162 24.7262 30.9887 24.1988C30.4613 23.6713 29.7459 23.375 29 23.375C28.2541 23.375 27.5387 23.6713 27.0113 24.1988C26.4838 24.7262 26.1875 25.4416 26.1875 26.1875C26.1875 26.9334 26.4838 27.6488 27.0113 28.1762C27.5387 28.7037 28.2541 29 29 29ZM29 30.875C27.7568 30.875 26.5645 30.3811 25.6854 29.5021C24.8064 28.623 24.3125 27.4307 24.3125 26.1875C24.3125 24.9443 24.8064 23.752 25.6854 22.8729C26.5645 21.9939 27.7568 21.5 29 21.5C30.2432 21.5 31.4355 21.9939 32.3146 22.8729C33.1936 23.752 33.6875 24.9443 33.6875 26.1875C33.6875 27.4307 33.1936 28.623 32.3146 29.5021C31.4355 30.3811 30.2432 30.875 29 30.875Z" fill="#208AF4"/>
</svg>
