<svg width="58" height="58" viewBox="0 0 58 58" fill="none" xmlns="http://www.w3.org/2000/svg">
<rect width="58" height="58" rx="29" fill="white"/>
<rect x="0.5" y="0.5" width="57" height="57" rx="28.5" stroke="#E5E5E5" stroke-opacity="0.5"/>
<path fill-rule="evenodd" clip-rule="evenodd" d="M19.6264 16.2603C21.3302 14.5663 24.1358 14.8673 25.5624 16.7741L27.3292 19.1317C28.4912 20.6829 28.3876 22.8501 27.0086 24.2207L26.6754 24.5539C26.6376 24.6937 26.6338 24.8406 26.6642 24.9823C26.7524 25.5535 27.2298 26.7631 29.229 28.7511C31.2282 30.7391 32.4462 31.2151 33.0258 31.3047C33.1718 31.334 33.3227 31.3297 33.4668 31.2921L34.038 30.7237C35.2644 29.5057 37.146 29.2775 38.6636 30.1021L41.3376 31.5581C43.6294 32.8013 44.2076 35.9149 42.3316 37.7811L40.3422 39.7579C39.715 40.3809 38.8722 40.9003 37.8446 40.9969C35.3106 41.2335 29.4068 40.9311 23.2006 34.7613C17.4088 29.0017 16.2972 23.9785 16.1558 21.5033C16.0858 20.2517 16.6766 19.1933 17.4298 18.4457L19.6264 16.2603ZM23.8824 18.0327C23.1726 17.0849 21.851 17.0093 21.1062 17.7499L18.9082 19.9339C18.4462 20.3931 18.225 20.8999 18.253 21.3843C18.365 23.3513 19.261 27.8831 24.6818 33.2731C30.3686 38.9263 35.62 39.0957 37.65 38.9053C38.0644 38.8675 38.476 38.6519 38.861 38.2697L40.849 36.2915C41.6582 35.4879 41.4804 34.0235 40.3352 33.4019L37.6612 31.9473C36.922 31.5469 36.0568 31.6785 35.5192 32.2133L34.8822 32.8475L34.1402 32.1027C34.8822 32.8475 34.8808 32.8489 34.8794 32.8489L34.878 32.8517L34.8738 32.8559L34.864 32.8643L34.843 32.8839C34.7839 32.9387 34.7202 32.9884 34.6526 33.0323C34.5406 33.1065 34.3922 33.1891 34.206 33.2577C33.828 33.3991 33.3268 33.4747 32.708 33.3795C31.4942 33.1933 29.8856 32.3659 27.7478 30.2407C25.6114 28.1155 24.777 26.5167 24.5894 25.3043C24.4928 24.6855 24.5698 24.1843 24.7126 23.8063C24.7912 23.5936 24.9037 23.395 25.0458 23.2183L25.0906 23.1693L25.1102 23.1483L25.1186 23.1399L25.1228 23.1357L25.1256 23.1329L25.5288 22.7325C26.128 22.1347 26.212 21.1449 25.6478 20.3903L23.8824 18.0327Z" fill="#208AF4"/>
</svg>
