<svg width="69" height="69" viewBox="0 0 69 69" fill="none" xmlns="http://www.w3.org/2000/svg">
<rect width="69" height="69" rx="34.5" fill="white"/>
<rect x="0.5" y="0.5" width="68" height="68" rx="34" stroke="#E5E5E5" stroke-opacity="0.5"/>
<path d="M22.8592 21.5035L34.5 18.9167L46.1407 21.5035C46.4553 21.5734 46.7367 21.7485 46.9383 21.9999C47.14 22.2513 47.2499 22.5639 47.25 22.8862V37.0344C47.2499 38.4337 46.9043 39.8113 46.244 41.045C45.5837 42.2787 44.629 43.3303 43.4647 44.1064L34.5 50.0833L25.5353 44.1064C24.3712 43.3304 23.4167 42.2791 22.7563 41.0456C22.096 39.8122 21.7503 38.4349 21.75 37.0358V22.8862C21.7501 22.5639 21.86 22.2513 22.0617 21.9999C22.2633 21.7485 22.5447 21.5734 22.8592 21.5035ZM24.5833 24.0223V37.0344C24.5833 37.9672 24.8136 38.8856 25.2538 39.7081C25.6939 40.5305 26.3303 41.2316 27.1064 41.7491L34.5 46.6791L41.8936 41.7491C42.6695 41.2317 43.3057 40.5309 43.7459 39.7087C44.186 38.8865 44.4164 37.9684 44.4167 37.0358V24.0223L34.5 21.8208L24.5833 24.0223Z" fill="#208AF4"/>
</svg>
