<svg width="16" height="16" viewBox="0 0 16 16" fill="none" xmlns="http://www.w3.org/2000/svg">
<path d="M7.09194 1.96866C7.44936 1.19379 8.55064 1.19379 8.90806 1.96866L10.0226 4.38508C10.1683 4.70089 10.4676 4.91833 10.813 4.95928L13.4555 5.2726C14.3029 5.37307 14.6432 6.42046 14.0167 6.99983L12.063 8.80658C11.8077 9.0427 11.6934 9.39454 11.7611 9.73565L12.2798 12.3457C12.4461 13.1827 11.5551 13.83 10.8105 13.4132L8.48844 12.1134C8.18497 11.9435 7.81503 11.9435 7.51156 12.1134L5.1895 13.4132C4.44489 13.83 3.55393 13.1827 3.72024 12.3457L4.23885 9.73565C4.30663 9.39454 4.19232 9.0427 3.93698 8.80658L1.98325 6.99983C1.35675 6.42046 1.69707 5.37307 2.54446 5.2726L5.18704 4.95928C5.5324 4.91833 5.83169 4.70089 5.97736 4.38508L7.09194 1.96866Z" fill="#FFAE00"/>
</svg>
