<svg width="69" height="69" viewBox="0 0 69 69" fill="none" xmlns="http://www.w3.org/2000/svg">
<rect width="69" height="69" rx="34.5" fill="white"/>
<rect x="0.5" y="0.5" width="68" height="68" rx="34" stroke="#E5E5E5" stroke-opacity="0.5"/>
<path d="M40.2403 24.6244C40.0127 24.9232 39.9131 25.3 39.9633 25.6722C40.0135 26.0444 40.2095 26.3814 40.508 26.6092C42.0542 27.7871 43.2203 29.3934 43.8613 31.2285C44.5023 33.0636 44.59 35.0465 44.1136 36.9311C43.6372 38.8156 42.6175 40.5186 41.1814 41.8285C39.7452 43.1384 37.9559 43.9975 36.0356 44.2991L37.04 43.2933C37.2981 43.0261 37.4409 42.6682 37.4377 42.2968C37.4344 41.9253 37.2854 41.57 37.0228 41.3073C36.7601 41.0447 36.4048 40.8957 36.0334 40.8925C35.6619 40.8892 35.3041 41.032 35.0369 41.2901L31.4952 44.8317C31.2296 45.0974 31.0804 45.4577 31.0804 45.8333C31.0804 46.209 31.2296 46.5693 31.4952 46.8349L35.0369 50.3766C35.3041 50.6346 35.6619 50.7774 36.0334 50.7742C36.4048 50.771 36.7601 50.622 37.0228 50.3593C37.2854 50.0967 37.4344 49.7413 37.4377 49.3699C37.4409 48.9985 37.2981 48.6406 37.04 48.3734L35.8458 47.1806C38.3845 46.9108 40.7839 45.8852 42.7332 44.2365C44.6825 42.5877 46.092 40.3918 46.7792 37.933C47.4664 35.4742 47.3998 32.8657 46.5878 30.4452C45.7759 28.0247 44.256 25.9037 42.225 24.3567C41.9263 24.1291 41.5494 24.0295 41.1772 24.0797C40.8051 24.1299 40.4681 24.3258 40.2403 24.6244ZM37.5061 22.1651L33.9645 18.6234C33.7101 18.3666 33.3672 18.2168 33.006 18.2045C32.6448 18.1923 32.2925 18.3185 32.0214 18.5575C31.7502 18.7964 31.5806 19.13 31.5473 19.4899C31.514 19.8498 31.6196 20.2088 31.8423 20.4934L31.9599 20.6266L33.1541 21.8208C30.6578 22.0864 28.2954 23.0829 26.363 24.6854C24.4306 26.2879 23.0142 28.4252 22.2914 30.8293C21.5686 33.2334 21.5715 35.7974 22.2998 38.1998C23.0281 40.6023 24.4493 42.7364 26.3853 44.3345C26.6759 44.5645 27.0452 44.6715 27.4137 44.6324C27.7823 44.5933 28.1209 44.4114 28.3569 44.1255C28.5929 43.8397 28.7074 43.4727 28.676 43.1034C28.6445 42.7341 28.4696 42.3918 28.1887 42.15C26.7156 40.9336 25.6251 39.3176 25.0483 37.4963C24.4714 35.675 24.4328 33.7259 24.937 31.8832C25.4412 30.0405 26.4668 28.3826 27.8906 27.1088C29.3143 25.8349 31.0757 24.9993 32.9629 24.7023L31.9599 25.7067C31.7058 25.9617 31.5583 26.3038 31.5473 26.6635C31.5363 27.0233 31.6627 27.3738 31.9007 27.6437C32.1388 27.9137 32.4707 28.0829 32.829 28.1171C33.1873 28.1512 33.5451 28.0477 33.8299 27.8275L33.963 27.7099L37.5047 24.1682C37.7486 23.9243 37.8951 23.5998 37.9168 23.2555C37.9384 22.9112 37.8337 22.5708 37.6223 22.2982L37.5061 22.1651Z" fill="#208AF4"/>
</svg>
