<svg width="181" height="54" viewBox="0 0 181 54" fill="none" xmlns="http://www.w3.org/2000/svg">
<rect width="181" height="54" rx="16" fill="#208AF4"/>
<path d="M35 12C31.0227 12 27.2047 13.5813 24.3945 16.3934C21.5815 19.2065 20.0008 23.0217 20 27C20 30.9766 21.582 34.7946 24.3945 37.6066C27.2047 40.4187 31.0227 42 35 42C38.9773 42 42.7953 40.4187 45.6055 37.6066C48.418 34.7946 50 30.9766 50 27C50 23.0234 48.418 19.2054 45.6055 16.3934C42.7953 13.5813 38.9773 12 35 12Z" fill="white"/>
<path d="M26.7898 26.8416C31.1632 24.9366 34.0789 23.6806 35.5367 23.0737C39.7039 21.341 40.5687 21.0401 41.1336 21.0299C41.2578 21.0279 41.5343 21.0586 41.7148 21.2045C41.8648 21.3275 41.907 21.4939 41.9281 21.6108C41.9468 21.7275 41.9726 21.9935 41.9515 22.2012C41.7265 24.573 40.7492 30.3288 40.2523 32.9855C40.0437 34.1095 39.6289 34.4864 39.2281 34.5232C38.3562 34.6033 37.6953 33.9476 36.8515 33.3947C35.532 32.5291 34.7867 31.9905 33.5046 31.1461C32.0234 30.1701 32.9843 29.6337 33.8281 28.7571C34.0484 28.5276 37.8875 25.0366 37.9601 24.72C37.9695 24.6804 37.9789 24.5327 37.8898 24.4549C37.8031 24.3769 37.6742 24.4036 37.5804 24.4247C37.4468 24.4547 35.3398 25.8487 31.2523 28.6066C30.6546 29.0177 30.1132 29.2181 29.6257 29.2076C29.0914 29.1961 28.0601 28.9048 27.2937 28.6559C26.3562 28.3505 25.6086 28.189 25.6742 27.6703C25.707 27.4003 26.0796 27.124 26.7898 26.8416Z" fill="#208AF4"/>
<path d="M62.7955 21.6634V19.4545H74.4006V21.6634H69.9048V34H67.2912V21.6634H62.7955ZM79.7717 34.2131C78.6779 34.2131 77.7333 33.9858 76.9379 33.5312C76.1471 33.072 75.5387 32.4233 75.1126 31.5852C74.6864 30.7424 74.4734 29.7505 74.4734 28.6094C74.4734 27.4872 74.6864 26.5024 75.1126 25.6548C75.5434 24.8026 76.1448 24.1397 76.9165 23.6662C77.6883 23.188 78.5951 22.9489 79.6367 22.9489C80.3091 22.9489 80.9435 23.0578 81.5401 23.2756C82.1415 23.4886 82.6718 23.8201 83.131 24.2699C83.5951 24.7197 83.9596 25.2926 84.2248 25.9886C84.4899 26.6799 84.6225 27.5038 84.6225 28.4602V29.2486H75.6808V27.5156H82.158C82.1533 27.0232 82.0468 26.5852 81.8384 26.2017C81.6301 25.8134 81.3389 25.508 80.9648 25.2855C80.5955 25.063 80.1647 24.9517 79.6722 24.9517C79.1467 24.9517 78.685 25.0795 78.2873 25.3352C77.8896 25.5862 77.5794 25.9176 77.3569 26.3295C77.1391 26.7367 77.0278 27.1842 77.0231 27.6719V29.1847C77.0231 29.8191 77.1391 30.3636 77.3711 30.8182C77.6031 31.268 77.9274 31.6136 78.3441 31.8551C78.7608 32.0919 79.2485 32.2102 79.8072 32.2102C80.1812 32.2102 80.5198 32.1581 80.8228 32.054C81.1258 31.9451 81.3886 31.7865 81.6112 31.5781C81.8337 31.3698 82.0018 31.1117 82.1154 30.804L84.516 31.0739C84.3645 31.7083 84.0756 32.2623 83.6495 32.7358C83.2281 33.2045 82.6883 33.5691 82.0302 33.8295C81.372 34.0852 80.6192 34.2131 79.7717 34.2131ZM89.3686 19.4545V34H86.7976V19.4545H89.3686ZM96.842 34.2131C95.7482 34.2131 94.8036 33.9858 94.0082 33.5312C93.2174 33.072 92.609 32.4233 92.1829 31.5852C91.7567 30.7424 91.5437 29.7505 91.5437 28.6094C91.5437 27.4872 91.7567 26.5024 92.1829 25.6548C92.6138 24.8026 93.2151 24.1397 93.9869 23.6662C94.7586 23.188 95.6654 22.9489 96.707 22.9489C97.3794 22.9489 98.0138 23.0578 98.6104 23.2756C99.2118 23.4886 99.7421 23.8201 100.201 24.2699C100.665 24.7197 101.03 25.2926 101.295 25.9886C101.56 26.6799 101.693 27.5038 101.693 28.4602V29.2486H92.7511V27.5156H99.2283C99.2236 27.0232 99.1171 26.5852 98.9087 26.2017C98.7004 25.8134 98.4092 25.508 98.0352 25.2855C97.6658 25.063 97.235 24.9517 96.7425 24.9517C96.217 24.9517 95.7553 25.0795 95.3576 25.3352C94.9599 25.5862 94.6497 25.9176 94.4272 26.3295C94.2094 26.7367 94.0981 27.1842 94.0934 27.6719V29.1847C94.0934 29.8191 94.2094 30.3636 94.4414 30.8182C94.6734 31.268 94.9978 31.6136 95.4144 31.8551C95.8311 32.0919 96.3188 32.2102 96.8775 32.2102C97.2515 32.2102 97.5901 32.1581 97.8931 32.054C98.1961 31.9451 98.4589 31.7865 98.6815 31.5781C98.904 31.3698 99.0721 31.1117 99.1857 30.804L101.586 31.0739C101.435 31.7083 101.146 32.2623 100.72 32.7358C100.298 33.2045 99.7586 33.5691 99.1005 33.8295C98.4424 34.0852 97.6895 34.2131 96.842 34.2131ZM108.612 38.3182C107.689 38.3182 106.896 38.1927 106.233 37.9418C105.57 37.6955 105.037 37.3641 104.635 36.9474C104.232 36.5308 103.953 36.0691 103.797 35.5625L106.112 35.0014C106.216 35.2145 106.368 35.4252 106.567 35.6335C106.766 35.8466 107.033 36.0218 107.369 36.1591C107.71 36.3011 108.139 36.3722 108.655 36.3722C109.384 36.3722 109.988 36.1946 110.466 35.8395C110.944 35.4891 111.183 34.9115 111.183 34.1065V32.0398H111.055C110.923 32.3049 110.729 32.5772 110.473 32.8565C110.222 33.1359 109.888 33.3703 109.472 33.5597C109.06 33.7491 108.541 33.8438 107.916 33.8438C107.078 33.8438 106.318 33.6473 105.636 33.2543C104.959 32.8565 104.42 32.2647 104.017 31.4787C103.619 30.688 103.42 29.6984 103.42 28.5099C103.42 27.312 103.619 26.3011 104.017 25.4773C104.42 24.6487 104.962 24.0213 105.643 23.5952C106.325 23.1643 107.085 22.9489 107.923 22.9489C108.563 22.9489 109.088 23.0578 109.5 23.2756C109.917 23.4886 110.248 23.7467 110.494 24.0497C110.741 24.348 110.928 24.6297 111.055 24.8949H111.197V23.0909H113.733V34.1776C113.733 35.1103 113.51 35.8821 113.065 36.4929C112.62 37.1037 112.012 37.5606 111.24 37.8636C110.468 38.1667 109.592 38.3182 108.612 38.3182ZM108.634 31.8267C109.178 31.8267 109.642 31.6941 110.026 31.429C110.409 31.1638 110.7 30.7827 110.899 30.2855C111.098 29.7884 111.197 29.1918 111.197 28.4957C111.197 27.8092 111.098 27.2079 110.899 26.6918C110.705 26.1757 110.416 25.7756 110.033 25.4915C109.654 25.2027 109.188 25.0582 108.634 25.0582C108.061 25.0582 107.582 25.2074 107.199 25.5057C106.815 25.804 106.527 26.2135 106.332 26.7344C106.138 27.2505 106.041 27.8376 106.041 28.4957C106.041 29.1634 106.138 29.7481 106.332 30.25C106.531 30.7472 106.822 31.1354 107.206 31.4148C107.594 31.6894 108.07 31.8267 108.634 31.8267ZM116.368 34V23.0909H118.861V24.9091H118.974C119.173 24.2794 119.514 23.794 119.997 23.4531C120.485 23.1075 121.041 22.9347 121.666 22.9347C121.808 22.9347 121.967 22.9418 122.142 22.956C122.322 22.9654 122.471 22.982 122.589 23.0057V25.3707C122.481 25.3329 122.308 25.2997 122.071 25.2713C121.839 25.2382 121.614 25.2216 121.396 25.2216C120.928 25.2216 120.506 25.3234 120.132 25.527C119.763 25.7259 119.472 26.0028 119.259 26.358C119.045 26.7131 118.939 27.1226 118.939 27.5866V34H116.368ZM127.241 34.2202C126.55 34.2202 125.928 34.0971 125.374 33.8509C124.824 33.5999 124.389 33.2306 124.067 32.7429C123.75 32.2552 123.591 31.6539 123.591 30.9389C123.591 30.3234 123.705 29.8144 123.932 29.4119C124.159 29.0095 124.469 28.6875 124.862 28.446C125.255 28.2045 125.698 28.0223 126.19 27.8991C126.688 27.7713 127.201 27.679 127.732 27.6222C128.371 27.5559 128.889 27.4967 129.287 27.4446C129.685 27.3878 129.973 27.3026 130.153 27.1889C130.338 27.0705 130.43 26.8883 130.43 26.642V26.5994C130.43 26.0644 130.272 25.6501 129.955 25.3565C129.637 25.063 129.18 24.9162 128.584 24.9162C127.954 24.9162 127.455 25.0535 127.085 25.3281C126.721 25.6027 126.474 25.9271 126.347 26.3011L123.946 25.9602C124.135 25.2973 124.448 24.7434 124.884 24.2983C125.319 23.8485 125.852 23.5123 126.482 23.2898C127.111 23.0625 127.807 22.9489 128.57 22.9489C129.095 22.9489 129.618 23.0104 130.139 23.1335C130.66 23.2566 131.136 23.4602 131.567 23.7443C131.998 24.0237 132.343 24.4048 132.604 24.8878C132.869 25.3707 133.001 25.9744 133.001 26.6989V34H130.53V32.5014H130.445C130.288 32.8045 130.068 33.0885 129.784 33.3537C129.505 33.6141 129.152 33.8248 128.726 33.9858C128.304 34.142 127.81 34.2202 127.241 34.2202ZM127.909 32.331C128.425 32.331 128.873 32.2292 129.251 32.0256C129.63 31.8172 129.921 31.5426 130.125 31.2017C130.333 30.8608 130.438 30.4891 130.438 30.0866V28.8011C130.357 28.8674 130.22 28.929 130.026 28.9858C129.836 29.0426 129.623 29.0923 129.386 29.1349C129.15 29.1776 128.915 29.2154 128.683 29.2486C128.451 29.2817 128.25 29.3101 128.08 29.3338C127.696 29.3859 127.353 29.4711 127.05 29.5895C126.747 29.7079 126.508 29.8736 126.332 30.0866C126.157 30.295 126.07 30.5649 126.07 30.8963C126.07 31.3698 126.242 31.7273 126.588 31.9688C126.934 32.2102 127.374 32.331 127.909 32.331ZM135.587 34V23.0909H138.044V24.9446H138.172C138.399 24.3196 138.776 23.8319 139.301 23.4815C139.827 23.1264 140.454 22.9489 141.183 22.9489C141.922 22.9489 142.545 23.1288 143.051 23.4886C143.563 23.8437 143.922 24.3291 144.131 24.9446H144.244C144.486 24.3385 144.893 23.8556 145.466 23.4957C146.044 23.1312 146.728 22.9489 147.518 22.9489C148.522 22.9489 149.341 23.2661 149.976 23.9006C150.61 24.535 150.928 25.4607 150.928 26.6776V34H148.349V27.0753C148.349 26.3982 148.17 25.9034 147.81 25.5909C147.45 25.2737 147.009 25.1151 146.489 25.1151C145.868 25.1151 145.383 25.3092 145.033 25.6974C144.687 26.081 144.514 26.5805 144.514 27.196V34H141.993V26.9688C141.993 26.4053 141.822 25.9555 141.482 25.6193C141.145 25.2831 140.705 25.1151 140.161 25.1151C139.791 25.1151 139.455 25.2098 139.152 25.3991C138.849 25.5838 138.607 25.8466 138.428 26.1875C138.248 26.5237 138.158 26.9167 138.158 27.3665V34H135.587Z" fill="white"/>
</svg>
