<svg width="181" height="54" viewBox="0 0 181 54" fill="none" xmlns="http://www.w3.org/2000/svg">
<rect width="181" height="54" rx="16" fill="#5FD568"/>
<circle cx="34.5" cy="27.5" r="11.5" fill="#5FD568"/>
<path fill-rule="evenodd" clip-rule="evenodd" d="M35.0001 12.2939C26.878 12.2939 20.2942 18.8778 20.2942 26.9998C20.2942 29.7792 21.0662 32.3822 22.4089 34.5998L21.0971 39.0587C21.0218 39.3147 21.0169 39.5862 21.0828 39.8448C21.1487 40.1034 21.2831 40.3394 21.4718 40.5281C21.6605 40.7168 21.8965 40.8512 22.1551 40.9171C22.4137 40.983 22.6852 40.9781 22.9412 40.9028L27.4001 39.591C29.6923 40.9777 32.321 41.7091 35.0001 41.7057C43.1221 41.7057 49.706 35.1219 49.706 26.9998C49.706 18.8778 43.1221 12.2939 35.0001 12.2939ZM31.6736 30.3278C34.6486 33.3013 37.4883 33.6939 38.4912 33.7307C40.0162 33.7866 41.5015 32.6219 42.0795 31.2704C42.1518 31.1022 42.178 30.9177 42.1552 30.7359C42.1325 30.5542 42.0617 30.3818 41.9501 30.2366C41.1442 29.2072 40.0545 28.4675 38.9898 27.7322C38.7676 27.5781 38.4943 27.5162 38.2274 27.5596C37.9606 27.6029 37.7209 27.7481 37.5589 27.9645L36.6765 29.3101C36.6299 29.3822 36.5576 29.4338 36.4743 29.4546C36.3911 29.4753 36.303 29.4636 36.228 29.4219C35.6295 29.0792 34.7574 28.4969 34.131 27.8704C33.5045 27.2439 32.9574 26.4116 32.6501 25.8513C32.6129 25.7799 32.6024 25.6976 32.6204 25.6192C32.6385 25.5407 32.6839 25.4713 32.7486 25.4234L34.1074 24.4145C34.3019 24.2463 34.4275 24.0122 34.46 23.7571C34.4926 23.502 34.4299 23.2439 34.2839 23.0322C33.6251 22.0675 32.8574 20.841 31.7442 20.0278C31.6002 19.9243 31.432 19.8598 31.2557 19.8405C31.0795 19.8212 30.9013 19.8477 30.7383 19.9175C29.3854 20.4969 28.2148 21.9822 28.2707 23.5101C28.3074 24.5131 28.7001 27.3528 31.6736 30.3278Z" fill="white"/>
<path d="M66.4957 34L62.3906 19.4545H65.2244L67.8452 30.1435H67.9801L70.7784 19.4545H73.3565L76.1619 30.1506H76.2898L78.9105 19.4545H81.7443L77.6392 34H75.0398L72.1278 23.794H72.0142L69.0952 34H66.4957ZM86.0288 27.608V34H83.4577V19.4545H85.9719V24.9446H86.0998C86.3555 24.3291 86.7508 23.8437 87.2859 23.4886C87.8256 23.1288 88.5122 22.9489 89.3455 22.9489C90.1031 22.9489 90.7636 23.1075 91.3271 23.4247C91.8905 23.742 92.3261 24.206 92.6339 24.8168C92.9464 25.4276 93.1026 26.1733 93.1026 27.054V34H90.5316V27.4517C90.5316 26.7178 90.3422 26.1473 89.9634 25.7401C89.5894 25.3281 89.0638 25.1222 88.3867 25.1222C87.9322 25.1222 87.525 25.2216 87.1651 25.4205C86.81 25.6146 86.5307 25.8963 86.3271 26.2656C86.1282 26.6349 86.0288 27.0824 86.0288 27.608ZM98.8626 34.2202C98.1713 34.2202 97.5487 34.0971 96.9947 33.8509C96.4454 33.5999 96.0098 33.2306 95.6879 32.7429C95.3706 32.2552 95.212 31.6539 95.212 30.9389C95.212 30.3234 95.3256 29.8144 95.5529 29.4119C95.7802 29.0095 96.0903 28.6875 96.4833 28.446C96.8763 28.2045 97.319 28.0223 97.8114 27.8991C98.3086 27.7713 98.8223 27.679 99.3526 27.6222C99.9918 27.5559 100.51 27.4967 100.908 27.4446C101.306 27.3878 101.595 27.3026 101.775 27.1889C101.959 27.0705 102.051 26.8883 102.051 26.642V26.5994C102.051 26.0644 101.893 25.6501 101.576 25.3565C101.258 25.063 100.801 24.9162 100.205 24.9162C99.5752 24.9162 99.0756 25.0535 98.7063 25.3281C98.3417 25.6027 98.0955 25.9271 97.9677 26.3011L95.5671 25.9602C95.7565 25.2973 96.069 24.7434 96.5046 24.2983C96.9402 23.8485 97.4729 23.5123 98.1026 23.2898C98.7324 23.0625 99.4284 22.9489 100.191 22.9489C100.716 22.9489 101.239 23.0104 101.76 23.1335C102.281 23.2566 102.757 23.4602 103.188 23.7443C103.619 24.0237 103.964 24.4048 104.225 24.8878C104.49 25.3707 104.623 25.9744 104.623 26.6989V34H102.151V32.5014H102.066C101.909 32.8045 101.689 33.0885 101.405 33.3537C101.126 33.6141 100.773 33.8248 100.347 33.9858C99.9255 34.142 99.4308 34.2202 98.8626 34.2202ZM99.5302 32.331C100.046 32.331 100.494 32.2292 100.873 32.0256C101.251 31.8172 101.542 31.5426 101.746 31.2017C101.954 30.8608 102.059 30.4891 102.059 30.0866V28.8011C101.978 28.8674 101.841 28.929 101.647 28.9858C101.457 29.0426 101.244 29.0923 101.007 29.1349C100.771 29.1776 100.536 29.2154 100.304 29.2486C100.072 29.2817 99.8711 29.3101 99.7006 29.3338C99.3171 29.3859 98.9738 29.4711 98.6708 29.5895C98.3678 29.7079 98.1287 29.8736 97.9535 30.0866C97.7783 30.295 97.6907 30.5649 97.6907 30.8963C97.6907 31.3698 97.8635 31.7273 98.2092 31.9688C98.5548 32.2102 98.9951 32.331 99.5302 32.331ZM112.655 23.0909V25.0795H106.384V23.0909H112.655ZM107.932 20.4773H110.503V30.7188C110.503 31.0644 110.555 31.3295 110.659 31.5142C110.768 31.6941 110.91 31.8172 111.086 31.8835C111.261 31.9498 111.455 31.983 111.668 31.983C111.829 31.983 111.976 31.9711 112.108 31.9474C112.246 31.9238 112.35 31.9025 112.421 31.8835L112.854 33.8935C112.717 33.9408 112.52 33.9929 112.265 34.0497C112.014 34.1065 111.706 34.1397 111.341 34.1491C110.697 34.1681 110.117 34.071 109.601 33.858C109.085 33.6402 108.676 33.304 108.373 32.8494C108.074 32.3949 107.927 31.8267 107.932 31.1449V20.4773ZM123.271 25.9744L120.928 26.2301C120.861 25.9934 120.745 25.7708 120.58 25.5625C120.419 25.3542 120.201 25.1861 119.926 25.0582C119.652 24.9304 119.315 24.8665 118.918 24.8665C118.383 24.8665 117.933 24.9825 117.568 25.2145C117.208 25.4465 117.031 25.7472 117.036 26.1165C117.031 26.4337 117.147 26.6918 117.384 26.8906C117.625 27.0895 118.023 27.2528 118.577 27.3807L120.438 27.7784C121.47 28.0009 122.237 28.3537 122.739 28.8366C123.245 29.3196 123.501 29.9517 123.506 30.733C123.501 31.4195 123.3 32.0256 122.902 32.5511C122.509 33.072 121.962 33.4792 121.261 33.7727C120.561 34.0663 119.756 34.2131 118.847 34.2131C117.511 34.2131 116.437 33.9337 115.622 33.375C114.808 32.8116 114.322 32.0279 114.166 31.0241L116.673 30.7827C116.787 31.2751 117.028 31.6468 117.398 31.8977C117.767 32.1487 118.248 32.2741 118.839 32.2741C119.45 32.2741 119.94 32.1487 120.31 31.8977C120.684 31.6468 120.871 31.3366 120.871 30.9673C120.871 30.6548 120.75 30.3968 120.509 30.1932C120.272 29.9896 119.902 29.8333 119.401 29.7244L117.54 29.3338C116.493 29.116 115.719 28.7491 115.217 28.233C114.715 27.7121 114.467 27.054 114.472 26.2585C114.467 25.5862 114.649 25.0038 115.018 24.5114C115.393 24.0142 115.911 23.6307 116.574 23.3608C117.241 23.0862 118.011 22.9489 118.882 22.9489C120.161 22.9489 121.167 23.2211 121.901 23.7656C122.639 24.3101 123.096 25.0464 123.271 25.9744ZM128.765 34.2202C128.074 34.2202 127.451 34.0971 126.897 33.8509C126.348 33.5999 125.912 33.2306 125.59 32.7429C125.273 32.2552 125.114 31.6539 125.114 30.9389C125.114 30.3234 125.228 29.8144 125.455 29.4119C125.683 29.0095 125.993 28.6875 126.386 28.446C126.779 28.2045 127.221 28.0223 127.714 27.8991C128.211 27.7713 128.725 27.679 129.255 27.6222C129.894 27.5559 130.413 27.4967 130.81 27.4446C131.208 27.3878 131.497 27.3026 131.677 27.1889C131.862 27.0705 131.954 26.8883 131.954 26.642V26.5994C131.954 26.0644 131.795 25.6501 131.478 25.3565C131.161 25.063 130.704 24.9162 130.107 24.9162C129.478 24.9162 128.978 25.0535 128.609 25.3281C128.244 25.6027 127.998 25.9271 127.87 26.3011L125.469 25.9602C125.659 25.2973 125.971 24.7434 126.407 24.2983C126.843 23.8485 127.375 23.5123 128.005 23.2898C128.635 23.0625 129.331 22.9489 130.093 22.9489C130.619 22.9489 131.142 23.0104 131.663 23.1335C132.183 23.2566 132.659 23.4602 133.09 23.7443C133.521 24.0237 133.867 24.4048 134.127 24.8878C134.392 25.3707 134.525 25.9744 134.525 26.6989V34H132.053V32.5014H131.968C131.812 32.8045 131.592 33.0885 131.308 33.3537C131.028 33.6141 130.675 33.8248 130.249 33.9858C129.828 34.142 129.333 34.2202 128.765 34.2202ZM129.433 32.331C129.949 32.331 130.396 32.2292 130.775 32.0256C131.154 31.8172 131.445 31.5426 131.648 31.2017C131.857 30.8608 131.961 30.4891 131.961 30.0866V28.8011C131.88 28.8674 131.743 28.929 131.549 28.9858C131.36 29.0426 131.147 29.0923 130.91 29.1349C130.673 29.1776 130.439 29.2154 130.207 29.2486C129.975 29.2817 129.773 29.3101 129.603 29.3338C129.219 29.3859 128.876 29.4711 128.573 29.5895C128.27 29.7079 128.031 29.8736 127.856 30.0866C127.681 30.295 127.593 30.5649 127.593 30.8963C127.593 31.3698 127.766 31.7273 128.112 31.9688C128.457 32.2102 128.897 32.331 129.433 32.331ZM137.11 38.0909V23.0909H139.638V24.8949H139.788C139.92 24.6297 140.107 24.348 140.349 24.0497C140.59 23.7467 140.917 23.4886 141.329 23.2756C141.741 23.0578 142.266 22.9489 142.906 22.9489C143.748 22.9489 144.508 23.1643 145.185 23.5952C145.867 24.0213 146.407 24.6534 146.805 25.4915C147.207 26.3248 147.408 27.3475 147.408 28.5597C147.408 29.7576 147.212 30.7756 146.819 31.6136C146.426 32.4517 145.891 33.0909 145.214 33.5312C144.537 33.9716 143.77 34.1918 142.913 34.1918C142.288 34.1918 141.769 34.0876 141.357 33.8793C140.945 33.6709 140.614 33.42 140.363 33.1264C140.117 32.8281 139.925 32.5464 139.788 32.2812H139.681V38.0909H137.11ZM139.631 28.5455C139.631 29.2509 139.731 29.8688 139.93 30.3991C140.133 30.9295 140.424 31.3437 140.803 31.642C141.187 31.9356 141.651 32.0824 142.195 32.0824C142.763 32.0824 143.239 31.9309 143.623 31.6278C144.006 31.3201 144.295 30.901 144.489 30.3707C144.688 29.8357 144.788 29.2273 144.788 28.5455C144.788 27.8684 144.691 27.267 144.496 26.7415C144.302 26.2159 144.013 25.804 143.63 25.5057C143.246 25.2074 142.768 25.0582 142.195 25.0582C141.646 25.0582 141.18 25.2027 140.796 25.4915C140.413 25.7803 140.121 26.1851 139.923 26.706C139.728 27.2268 139.631 27.84 139.631 28.5455ZM149.61 38.0909V23.0909H152.138V24.8949H152.288C152.42 24.6297 152.607 24.348 152.849 24.0497C153.09 23.7467 153.417 23.4886 153.829 23.2756C154.241 23.0578 154.766 22.9489 155.406 22.9489C156.248 22.9489 157.008 23.1643 157.685 23.5952C158.367 24.0213 158.907 24.6534 159.305 25.4915C159.707 26.3248 159.908 27.3475 159.908 28.5597C159.908 29.7576 159.712 30.7756 159.319 31.6136C158.926 32.4517 158.391 33.0909 157.714 33.5312C157.037 33.9716 156.27 34.1918 155.413 34.1918C154.788 34.1918 154.269 34.0876 153.857 33.8793C153.445 33.6709 153.114 33.42 152.863 33.1264C152.617 32.8281 152.425 32.5464 152.288 32.2812H152.181V38.0909H149.61ZM152.131 28.5455C152.131 29.2509 152.231 29.8688 152.43 30.3991C152.633 30.9295 152.924 31.3437 153.303 31.642C153.687 31.9356 154.151 32.0824 154.695 32.0824C155.263 32.0824 155.739 31.9309 156.123 31.6278C156.506 31.3201 156.795 30.901 156.989 30.3707C157.188 29.8357 157.288 29.2273 157.288 28.5455C157.288 27.8684 157.191 27.267 156.996 26.7415C156.802 26.2159 156.513 25.804 156.13 25.5057C155.746 25.2074 155.268 25.0582 154.695 25.0582C154.146 25.0582 153.68 25.2027 153.296 25.4915C152.913 25.7803 152.621 26.1851 152.423 26.706C152.228 27.2268 152.131 27.84 152.131 28.5455Z" fill="white"/>
</svg>
