<svg width="30" height="30" viewBox="0 0 30 30" fill="none" xmlns="http://www.w3.org/2000/svg">
<circle cx="14.5" cy="15.5" r="11.5" fill="white"/>
<path fill-rule="evenodd" clip-rule="evenodd" d="M15.0001 0.294044C6.87801 0.294044 0.294189 6.87787 0.294189 14.9999C0.294189 17.7793 1.06625 20.3823 2.4089 22.5999L1.09713 27.0588C1.02181 27.3148 1.01686 27.5863 1.08278 27.8449C1.14871 28.1035 1.28308 28.3395 1.47178 28.5282C1.66047 28.7169 1.89651 28.8513 2.1551 28.9172C2.41368 28.9831 2.68524 28.9782 2.94125 28.9029L7.40007 27.5911C9.69233 28.9778 12.321 29.7092 15.0001 29.7058C23.1221 29.7058 29.706 23.122 29.706 14.9999C29.706 6.87787 23.1221 0.294044 15.0001 0.294044ZM11.6736 18.3279C14.6486 21.3014 17.4883 21.694 18.4912 21.7308C20.0162 21.7867 21.5015 20.622 22.0795 19.2705C22.1518 19.1023 22.178 18.9178 22.1552 18.736C22.1325 18.5543 22.0617 18.3819 21.9501 18.2367C21.1442 17.2073 20.0545 16.4676 18.9898 15.7323C18.7676 15.5782 18.4943 15.5163 18.2274 15.5597C17.9606 15.603 17.7209 15.7482 17.5589 15.9646L16.6765 17.3102C16.6299 17.3823 16.5576 17.4339 16.4743 17.4547C16.3911 17.4754 16.303 17.4637 16.228 17.422C15.6295 17.0793 14.7574 16.497 14.131 15.8705C13.5045 15.244 12.9574 14.4117 12.6501 13.8514C12.6129 13.78 12.6024 13.6977 12.6204 13.6193C12.6385 13.5408 12.6839 13.4714 12.7486 13.4235L14.1074 12.4146C14.3019 12.2464 14.4275 12.0123 14.46 11.7572C14.4926 11.5021 14.4299 11.244 14.2839 11.0323C13.6251 10.0676 12.8574 8.8411 11.7442 8.02787C11.6002 7.92442 11.432 7.85992 11.2557 7.84059C11.0795 7.82127 10.9013 7.84779 10.7383 7.91757C9.38537 8.49699 8.21478 9.98228 8.27066 11.5102C8.30742 12.5132 8.70007 15.3529 11.6736 18.3279Z" fill="#5FD568"/>
</svg>
